<?xml version="1.0" encoding="UTF-8" standalone="no"?>
<svg
   viewBox="0 0 450.00001 450.00001"
   version="1.1"
   id="svg112"
   sodipodi:docname="Logo-ohneText.svg"
   width="450"
   height="450"
   inkscape:version="1.3.2 (091e20e, 2023-11-25)"
   xmlns:inkscape="http://www.inkscape.org/namespaces/inkscape"
   xmlns:sodipodi="http://sodipodi.sourceforge.net/DTD/sodipodi-0.dtd"
   xmlns="http://www.w3.org/2000/svg"
   xmlns:svg="http://www.w3.org/2000/svg">
  <sodipodi:namedview
     id="namedview112"
     pagecolor="#ffffff"
     bordercolor="#666666"
     borderopacity="1.0"
     inkscape:showpageshadow="2"
     inkscape:pageopacity="0.0"
     inkscape:pagecheckerboard="0"
     inkscape:deskcolor="#d1d1d1"
     inkscape:zoom="1.8541809"
     inkscape:cx="265.34628"
     inkscape:cy="242.69477"
     inkscape:window-width="1920"
     inkscape:window-height="1016"
     inkscape:window-x="0"
     inkscape:window-y="27"
     inkscape:window-maximized="1"
     inkscape:current-layer="Layer_9" />
  <defs
     id="defs1">
    <style
       id="style1">.cls-1{fill:#00b7f1;}.cls-2{fill:#a6e2fa;}.cls-3{fill:#004e7c;}.cls-4{fill:#ef4277;}.cls-5{fill:#f9c0d2;}.cls-6{fill:#901f46;}.cls-7{fill:#ff9e18;}.cls-8{fill:#ffc27a;}.cls-9{fill:#d77900;}.cls-10{fill:#4cb748;}.cls-11{fill:#94d491;}.cls-12{fill:#145f1f;}</style>
  </defs>
  <g
     id="Layer_9"
     data-name="Layer 9"
     transform="translate(280.41595,-165.36231)">
    <path
       class="cls-1"
       d="M 60.51,228.34 A 5.66,5.66 0 0 0 54.84,234 v 38.58 a 5.67,5.67 0 1 1 11.33,0 V 234 a 5.65,5.65 0 0 0 -5.66,-5.66 z"
       id="path1" />
    <path
       class="cls-1"
       d="m 42.24,209.12 a 5.91,5.91 0 0 0 -5.41,6 v 50.11 0 a 5.67,5.67 0 0 1 11.33,0 v 0 -50.45 a 5.67,5.67 0 0 0 -5.92,-5.66 z"
       id="path2" />
    <path
       class="cls-1"
       d="m 24.48,190.77 a 5.67,5.67 0 0 0 -5.67,5.67 V 261 a 5.67,5.67 0 0 1 11.33,0 v -64.56 a 5.66,5.66 0 0 0 -5.66,-5.67 z"
       id="path3" />
    <path
       class="cls-2"
       d="m -137.65,288.43 a 5.65,5.65 0 0 1 -5.65,-5.65 v 0 0 38 a 5.67,5.67 0 1 0 11.33,0 v -38 a 5.65,5.65 0 0 1 -5.68,5.65 z"
       id="path4" />
    <path
       class="cls-2"
       d="m -119.53,295.39 a 5.66,5.66 0 0 1 -5.66,-5.67 v 50.47 a 5.67,5.67 0 1 0 11.33,0 v -50.47 a 5.67,5.67 0 0 1 -5.67,5.67 z"
       id="path5" />
    <path
       class="cls-2"
       d="m -101.63,299.82 a 5.66,5.66 0 0 1 -5.66,-5.67 v 64.6 a 5.67,5.67 0 1 0 11.33,0 v -64.6 a 5.67,5.67 0 0 1 -5.67,5.67 z"
       id="path6" />
    <path
       class="cls-1"
       d="m 12.13,189.87 a 5.67,5.67 0 0 0 -11.33,0 v 68.74 a 5.67,5.67 0 1 1 11.33,0 z"
       id="path7" />
    <path
       class="cls-1"
       d="m -5.89,196.5 a 5.67,5.67 0 1 0 -11.33,0 v 61.3 a 5.67,5.67 0 0 1 11.33,0 z"
       id="path8" />
    <path
       class="cls-1"
       d="m -29.57,204.75 a 5.66,5.66 0 0 0 -5.66,5.66 V 258 a 5.66,5.66 0 0 1 11.32,0 v -47.59 a 5.66,5.66 0 0 0 -5.66,-5.66 z"
       id="path9" />
    <path
       class="cls-1"
       d="m -47.58,228.34 a 5.66,5.66 0 0 0 -5.67,5.66 v 24.91 a 5.67,5.67 0 0 1 11.33,0 V 234 a 5.65,5.65 0 0 0 -5.66,-5.66 z"
       id="path10" />
    <path
       class="cls-1"
       d="m -59.93,251.28 a 5.67,5.67 0 1 0 -11.33,0 v 9.36 a 5.67,5.67 0 0 1 11.33,0 z"
       id="path11" />
    <path
       class="cls-3"
       d="m -119.53,274.08 a 5.65,5.65 0 0 0 -5.66,5.66 v 10 a 5.67,5.67 0 1 0 11.33,0 v -10 a 5.66,5.66 0 0 0 -5.67,-5.66 z"
       id="path12" />
    <path
       class="cls-3"
       d="m -101.63,267.62 a 5.65,5.65 0 0 0 -5.66,5.66 v 20.87 a 5.67,5.67 0 1 0 11.33,0 v -20.87 a 5.66,5.66 0 0 0 -5.67,-5.66 z"
       id="path13" />
    <path
       class="cls-2"
       d="m -89.28,365.45 a 5.67,5.67 0 1 0 11.33,0 V 297 a 5.67,5.67 0 1 1 -11.33,0 z"
       id="path14" />
    <path
       class="cls-3"
       d="m -83.61,258.08 a 5.67,5.67 0 0 0 -5.67,5.65 V 297 a 5.67,5.67 0 1 0 11.33,0 v -33.26 a 5.65,5.65 0 0 0 -5.66,-5.66 z"
       id="path15" />
    <path
       class="cls-2"
       d="m -71.26,358.87 a 5.67,5.67 0 1 0 11.33,0 v -61.21 a 5.67,5.67 0 1 1 -11.33,0 z"
       id="path16" />
    <path
       class="cls-3"
       d="m -65.6,255 a 5.66,5.66 0 0 0 -5.66,5.65 v 37 a 5.67,5.67 0 1 0 11.33,0 v -37 A 5.66,5.66 0 0 0 -65.6,255 Z"
       id="path17" />
    <path
       class="cls-2"
       d="m -47.58,303.09 a 5.67,5.67 0 0 1 -5.67,-5.67 V 345 a 5.67,5.67 0 0 0 11.33,0 v -47.58 a 5.66,5.66 0 0 1 -5.66,5.67 z"
       id="path18" />
    <path
       class="cls-3"
       d="m -47.58,253.25 a 5.66,5.66 0 0 0 -5.67,5.66 v 38.51 a 5.67,5.67 0 1 0 11.33,0 v -38.51 a 5.65,5.65 0 0 0 -5.66,-5.66 z"
       id="path19" />
    <path
       class="cls-2"
       d="m -29.57,302 a 5.66,5.66 0 0 1 -5.66,-5.66 v 25 a 5.66,5.66 0 0 0 11.32,0 v -25 a 5.66,5.66 0 0 1 -5.66,5.66 z"
       id="path20" />
    <path
       class="cls-3"
       d="m -29.57,252.29 a 5.65,5.65 0 0 0 -5.66,5.66 v 38.35 a 5.66,5.66 0 0 0 11.32,0 V 258 a 5.65,5.65 0 0 0 -5.66,-5.71 z"
       id="path21" />
    <path
       class="cls-2"
       d="m -17.22,304.09 a 5.67,5.67 0 1 0 11.33,0 v -9.27 a 5.67,5.67 0 1 1 -11.33,0 z"
       id="path22" />
    <path
       class="cls-3"
       d="m -11.55,252.14 a 5.67,5.67 0 0 0 -5.67,5.66 v 37 a 5.67,5.67 0 1 0 11.33,0 v -37 a 5.66,5.66 0 0 0 -5.66,-5.66 z"
       id="path23" />
    <path
       class="cls-3"
       d="m 6.46,253 a 5.66,5.66 0 0 0 -5.66,5.66 v 32.94 a 5.67,5.67 0 0 0 11.33,0 V 258.62 A 5.67,5.67 0 0 0 6.46,253 Z"
       id="path24" />
    <path
       class="cls-3"
       d="m 24.48,255.31 a 5.66,5.66 0 0 0 -5.67,5.66 v 20.93 a 5.67,5.67 0 1 0 11.33,0 V 261 a 5.65,5.65 0 0 0 -5.66,-5.69 z"
       id="path25" />
    <path
       class="cls-3"
       d="m 48.16,265.26 a 5.67,5.67 0 0 0 -11.33,0 v 10 a 5.67,5.67 0 1 0 11.33,0 z"
       id="path26" />
    <path
       class="cls-3"
       d="m 60.51,266.91 a 5.67,5.67 0 0 0 -5.67,5.67 0.62,0.62 0 0 0 0,0.13 5.66,5.66 0 0 0 11.32,0 v -0.13 a 5.66,5.66 0 0 0 -5.65,-5.67 z"
       id="path27" />
    <path
       class="cls-3"
       d="m -137.65,277.13 a 5.65,5.65 0 0 0 -5.65,5.6 v 0 a 5.66,5.66 0 1 0 5.65,-5.65 z"
       id="path28" />
    <path
       class="cls-4"
       d="m 152.44,465 a 5.66,5.66 0 0 0 -5.66,-5.67 H 82.24 a 5.67,5.67 0 0 1 0,11.34 h 64.54 a 5.66,5.66 0 0 0 5.66,-5.67 z"
       id="path29" />
    <path
       class="cls-4"
       d="m 153.34,452.66 a 5.67,5.67 0 1 0 0,-11.33 H 84.61 a 5.67,5.67 0 0 1 0,11.33 z"
       id="path30" />
    <path
       class="cls-4"
       d="m 146.72,434.64 a 5.67,5.67 0 0 0 0,-11.33 h -61.3 a 5.67,5.67 0 1 1 0,11.33 z"
       id="path31" />
    <path
       class="cls-4"
       d="m 138.46,411 a 5.65,5.65 0 0 0 -5.66,-5.66 H 85.27 a 5.66,5.66 0 0 1 0,11.32 h 47.53 a 5.65,5.65 0 0 0 5.66,-5.66 z"
       id="path32" />
    <path
       class="cls-4"
       d="m 114.88,393 a 5.67,5.67 0 0 0 -5.67,-5.67 H 84.3 a 5.67,5.67 0 1 1 0,11.33 h 24.91 a 5.66,5.66 0 0 0 5.67,-5.66 z"
       id="path33" />
    <path
       class="cls-4"
       d="m 91.94,380.6 a 5.67,5.67 0 0 0 0,-11.33 h -9.37 a 5.67,5.67 0 1 1 0,11.33 z"
       id="path34" />
    <path
       class="cls-4"
       d="m 114.88,501 a 5.67,5.67 0 0 0 -5.67,-5.67 H 70.63 a 5.67,5.67 0 0 1 0,11.34 h 38.58 a 5.67,5.67 0 0 0 5.67,-5.67 z"
       id="path35" />
    <path
       class="cls-4"
       d="m 134.09,482.77 a 5.91,5.91 0 0 0 -6,-5.41 H 78 a 5.67,5.67 0 0 1 0,11.33 h 50.47 a 5.66,5.66 0 0 0 5.62,-5.92 z"
       id="path36" />
    <path
       class="cls-5"
       d="m 54.78,302.88 a 5.65,5.65 0 0 1 5.66,-5.65 v 0 0 h -38 a 5.67,5.67 0 0 0 0,11.33 h 38 a 5.65,5.65 0 0 1 -5.66,-5.68 z"
       id="path37" />
    <path
       class="cls-5"
       d="m 47.83,321 a 5.66,5.66 0 0 1 5.66,-5.66 H 3 a 5.67,5.67 0 0 0 0,11.33 H 53.47 A 5.67,5.67 0 0 1 47.83,321 Z"
       id="path38" />
    <path
       class="cls-5"
       d="m 43.4,338.9 a 5.66,5.66 0 0 1 5.67,-5.66 h -64.61 a 5.67,5.67 0 0 0 0,11.33 H 49.07 A 5.67,5.67 0 0 1 43.4,338.9 Z"
       id="path39" />
    <path
       class="cls-6"
       d="m 69.14,321 a 5.66,5.66 0 0 0 -5.67,-5.66 h -10 a 5.67,5.67 0 0 0 0,11.33 h 10 A 5.67,5.67 0 0 0 69.14,321 Z"
       id="path40" />
    <path
       class="cls-6"
       d="m 75.6,338.9 a 5.66,5.66 0 0 0 -5.67,-5.66 H 49.07 a 5.67,5.67 0 1 0 0,11.33 h 20.86 a 5.67,5.67 0 0 0 5.67,-5.67 z"
       id="path41" />
    <path
       class="cls-5"
       d="m -22.23,351.25 a 5.67,5.67 0 1 0 0,11.33 H 46.2 a 5.67,5.67 0 0 1 0,-11.33 z"
       id="path42" />
    <path
       class="cls-6"
       d="m 85.14,356.92 a 5.67,5.67 0 0 0 -5.65,-5.67 H 46.2 a 5.67,5.67 0 0 0 0,11.33 h 33.27 a 5.66,5.66 0 0 0 5.67,-5.66 z"
       id="path43" />
    <path
       class="cls-5"
       d="m -15.66,369.27 a 5.67,5.67 0 0 0 0,11.33 h 61.22 a 5.67,5.67 0 0 1 0,-11.33 z"
       id="path44" />
    <path
       class="cls-6"
       d="m 88.23,374.93 a 5.66,5.66 0 0 0 -5.66,-5.66 h -37 a 5.67,5.67 0 0 0 0,11.33 h 37 a 5.67,5.67 0 0 0 5.66,-5.67 z"
       id="path45" />
    <path
       class="cls-5"
       d="m 40.13,393 a 5.67,5.67 0 0 1 5.66,-5.67 H -1.77 a 5.67,5.67 0 1 0 0,11.33 H 45.79 A 5.66,5.66 0 0 1 40.13,393 Z"
       id="path46" />
    <path
       class="cls-6"
       d="m 90,393 a 5.67,5.67 0 0 0 -5.67,-5.67 H 45.79 a 5.67,5.67 0 0 0 0,11.33 H 84.3 A 5.66,5.66 0 0 0 90,393 Z"
       id="path47" />
    <path
       class="cls-5"
       d="m 41.26,411 a 5.65,5.65 0 0 1 5.66,-5.66 h -25 a 5.66,5.66 0 1 0 0,11.32 h 25 A 5.65,5.65 0 0 1 41.26,411 Z"
       id="path48" />
    <path
       class="cls-6"
       d="m 90.93,411 a 5.66,5.66 0 0 0 -5.66,-5.66 H 46.92 a 5.66,5.66 0 1 0 0,11.32 H 85.27 A 5.66,5.66 0 0 0 90.93,411 Z"
       id="path49" />
    <path
       class="cls-5"
       d="m 39.12,423.31 a 5.67,5.67 0 0 0 0,11.33 h 9.28 a 5.67,5.67 0 1 1 0,-11.33 z"
       id="path50" />
    <path
       class="cls-6"
       d="m 91.08,429 a 5.68,5.68 0 0 0 -5.66,-5.67 h -37 a 5.67,5.67 0 1 0 0,11.33 h 37 A 5.66,5.66 0 0 0 91.08,429 Z"
       id="path51" />
    <path
       class="cls-6"
       d="m 90.27,447 a 5.67,5.67 0 0 0 -5.66,-5.66 h -33 a 5.67,5.67 0 0 0 0,11.33 h 33 A 5.67,5.67 0 0 0 90.27,447 Z"
       id="path52" />
    <path
       class="cls-6"
       d="m 87.91,465 a 5.67,5.67 0 0 0 -5.67,-5.67 H 61.32 a 5.67,5.67 0 0 0 0,11.34 H 82.24 A 5.67,5.67 0 0 0 87.91,465 Z"
       id="path53" />
    <path
       class="cls-6"
       d="m 78,488.69 a 5.67,5.67 0 0 0 0,-11.33 H 68 a 5.67,5.67 0 0 0 0,11.33 z"
       id="path54" />
    <path
       class="cls-6"
       d="m 76.3,501 a 5.67,5.67 0 0 0 -5.67,-5.67 h -0.12 a 5.66,5.66 0 0 0 0,11.32 h 0.12 A 5.67,5.67 0 0 0 76.3,501 Z"
       id="path55" />
    <path
       class="cls-6"
       d="m 66.09,302.88 a 5.65,5.65 0 0 0 -5.6,-5.65 v 0 a 5.66,5.66 0 1 0 5.65,5.65 z"
       id="path56" />
    <path
       class="cls-7"
       d="m -212.5,282.7 a 5.67,5.67 0 0 0 5.67,5.67 h 38.57 a 5.67,5.67 0 0 1 0,-11.33 h -38.57 a 5.66,5.66 0 0 0 -5.67,5.66 z"
       id="path57" />
    <path
       class="cls-7"
       d="m -231.72,301 a 5.91,5.91 0 0 0 6,5.4 h 50.11 a 5.66,5.66 0 0 1 0,-11.32 h -50.45 a 5.67,5.67 0 0 0 -5.66,5.92 z"
       id="path58" />
    <path
       class="cls-7"
       d="m -250.06,318.73 a 5.66,5.66 0 0 0 5.66,5.67 h 64.54 a 5.67,5.67 0 1 1 0,-11.33 h -64.54 a 5.65,5.65 0 0 0 -5.66,5.66 z"
       id="path59" />
    <path
       class="cls-8"
       d="m -152.4,480.86 a 5.65,5.65 0 0 1 -5.66,5.65 h -0.05 0.05 38 a 5.67,5.67 0 0 0 0,-11.34 h -38 a 5.66,5.66 0 0 1 5.66,5.69 z"
       id="path60" />
    <path
       class="cls-8"
       d="m -145.45,462.74 a 5.67,5.67 0 0 1 -5.67,5.67 h 50.48 a 5.67,5.67 0 0 0 0,-11.34 h -50.48 a 5.67,5.67 0 0 1 5.67,5.67 z"
       id="path61" />
    <path
       class="cls-8"
       d="m -141,444.84 a 5.67,5.67 0 0 1 -5.67,5.67 h 64.61 a 5.67,5.67 0 0 0 0,-11.34 h -64.63 a 5.67,5.67 0 0 1 5.69,5.67 z"
       id="path62" />
    <path
       class="cls-7"
       d="m -251,331.08 a 5.67,5.67 0 1 0 0,11.33 h 68.73 a 5.67,5.67 0 1 1 0,-11.33 z"
       id="path63" />
    <path
       class="cls-7"
       d="m -244.34,349.1 a 5.67,5.67 0 0 0 0,11.33 H -183 a 5.67,5.67 0 0 1 0,-11.33 z"
       id="path64" />
    <path
       class="cls-7"
       d="m -236.09,372.78 a 5.67,5.67 0 0 0 5.67,5.67 h 47.53 a 5.67,5.67 0 0 1 0,-11.33 h -47.53 a 5.67,5.67 0 0 0 -5.67,5.66 z"
       id="path65" />
    <path
       class="cls-7"
       d="m -212.5,390.79 a 5.67,5.67 0 0 0 5.67,5.67 h 24.9 a 5.67,5.67 0 0 1 0,-11.33 h -24.9 a 5.67,5.67 0 0 0 -5.67,5.66 z"
       id="path66" />
    <path
       class="cls-7"
       d="m -189.56,403.14 a 5.67,5.67 0 0 0 0,11.34 h 9.37 a 5.67,5.67 0 0 1 0,-11.34 z"
       id="path67" />
    <path
       class="cls-9"
       d="m -166.76,462.74 a 5.67,5.67 0 0 0 5.67,5.67 h 10 a 5.67,5.67 0 0 0 0,-11.34 h -10 a 5.67,5.67 0 0 0 -5.67,5.67 z"
       id="path68" />
    <path
       class="cls-9"
       d="m -173.22,444.84 a 5.67,5.67 0 0 0 5.67,5.67 h 20.86 a 5.67,5.67 0 1 0 0,-11.34 h -20.86 a 5.67,5.67 0 0 0 -5.67,5.67 z"
       id="path69" />
    <path
       class="cls-8"
       d="m -75.39,432.49 a 5.67,5.67 0 1 0 0,-11.33 h -68.43 a 5.67,5.67 0 0 1 0,11.33 z"
       id="path70" />
    <path
       class="cls-9"
       d="m -182.76,426.83 a 5.67,5.67 0 0 0 5.65,5.66 h 33.29 a 5.67,5.67 0 0 0 0,-11.33 h -33.27 a 5.67,5.67 0 0 0 -5.67,5.67 z"
       id="path71" />
    <path
       class="cls-8"
       d="m -82,414.48 a 5.67,5.67 0 0 0 0,-11.34 h -61.18 a 5.67,5.67 0 0 1 0,11.34 z"
       id="path72" />
    <path
       class="cls-9"
       d="m -185.85,408.81 a 5.67,5.67 0 0 0 5.66,5.67 h 37 a 5.67,5.67 0 0 0 0,-11.34 h -37 a 5.67,5.67 0 0 0 -5.66,5.67 z"
       id="path73" />
    <path
       class="cls-8"
       d="m -137.75,390.79 a 5.67,5.67 0 0 1 -5.67,5.67 h 47.57 a 5.67,5.67 0 1 0 0,-11.33 h -47.57 a 5.67,5.67 0 0 1 5.67,5.66 z"
       id="path74" />
    <path
       class="cls-9"
       d="m -187.59,390.79 a 5.67,5.67 0 0 0 5.66,5.67 h 38.51 a 5.67,5.67 0 1 0 0,-11.33 h -38.51 a 5.67,5.67 0 0 0 -5.66,5.66 z"
       id="path75" />
    <path
       class="cls-8"
       d="m -138.88,372.78 a 5.66,5.66 0 0 1 -5.66,5.67 h 25 a 5.67,5.67 0 0 0 0,-11.33 h -25 a 5.66,5.66 0 0 1 5.66,5.66 z"
       id="path76" />
    <path
       class="cls-9"
       d="m -188.55,372.78 a 5.67,5.67 0 0 0 5.66,5.67 h 38.35 a 5.67,5.67 0 0 0 0,-11.33 h -38.35 a 5.67,5.67 0 0 0 -5.66,5.66 z"
       id="path77" />
    <path
       class="cls-8"
       d="m -136.74,360.43 a 5.67,5.67 0 0 0 0,-11.33 H -146 a 5.67,5.67 0 1 1 0,11.33 z"
       id="path78" />
    <path
       class="cls-9"
       d="m -188.7,354.76 a 5.67,5.67 0 0 0 5.66,5.67 h 37 a 5.67,5.67 0 1 0 0,-11.33 H -183 a 5.67,5.67 0 0 0 -5.7,5.66 z"
       id="path79" />
    <path
       class="cls-9"
       d="m -187.89,336.75 a 5.66,5.66 0 0 0 5.66,5.66 h 33 a 5.67,5.67 0 0 0 0,-11.33 h -33 a 5.67,5.67 0 0 0 -5.66,5.67 z"
       id="path80" />
    <path
       class="cls-9"
       d="m -185.53,318.73 a 5.67,5.67 0 0 0 5.67,5.67 h 20.92 a 5.67,5.67 0 1 0 0,-11.33 h -20.92 a 5.66,5.66 0 0 0 -5.67,5.66 z"
       id="path81" />
    <path
       class="cls-9"
       d="m -175.58,295.06 a 5.66,5.66 0 0 0 0,11.32 h 10 a 5.67,5.67 0 0 0 0,-11.33 h -10 z"
       id="path82" />
    <path
       class="cls-9"
       d="m -173.92,282.7 a 5.67,5.67 0 0 0 5.66,5.67 h 0.13 a 5.67,5.67 0 0 0 0,-11.33 h -0.13 a 5.66,5.66 0 0 0 -5.66,5.66 z"
       id="path83" />
    <path
       class="cls-9"
       d="m -163.71,480.86 a 5.65,5.65 0 0 0 5.6,5.65 h 0.05 a 5.66,5.66 0 1 0 -5.65,-5.65 z"
       id="path84" />
    <path
       class="cls-10"
       d="m -158,555.78 a 5.67,5.67 0 0 0 5.67,-5.67 v -38.58 a 5.67,5.67 0 1 1 -11.33,0 v 38.58 a 5.67,5.67 0 0 0 5.66,5.67 z"
       id="path85" />
    <path
       class="cls-10"
       d="m -139.76,575 a 5.91,5.91 0 0 0 5.41,-6 v -50.15 0 a 5.66,5.66 0 0 1 -11.32,0 v 0 50.48 a 5.66,5.66 0 0 0 5.91,5.67 z"
       id="path86" />
    <path
       class="cls-10"
       d="m -122,593.34 a 5.66,5.66 0 0 0 5.67,-5.66 v -64.54 a 5.67,5.67 0 1 1 -11.33,0 v 64.54 a 5.66,5.66 0 0 0 5.66,5.66 z"
       id="path87" />
    <path
       class="cls-11"
       d="m 40.12,495.68 a 5.65,5.65 0 0 1 5.65,5.65 v 0.06 -0.06 -38 a 5.67,5.67 0 0 0 -11.33,0 v 38 a 5.65,5.65 0 0 1 5.68,-5.65 z"
       id="path88" />
    <path
       class="cls-11"
       d="m 22,488.73 a 5.66,5.66 0 0 1 5.67,5.66 v -50.47 a 5.67,5.67 0 0 0 -11.33,0 v 50.47 A 5.65,5.65 0 0 1 22,488.73 Z"
       id="path89" />
    <path
       class="cls-11"
       d="m 4.1,484.3 a 5.67,5.67 0 0 1 5.67,5.66 v -64.6 a 5.67,5.67 0 0 0 -11.33,0 V 490 a 5.66,5.66 0 0 1 5.66,-5.7 z"
       id="path90" />
    <path
       class="cls-10"
       d="m -109.66,594.24 a 5.67,5.67 0 1 0 11.34,0 v -68.73 a 5.67,5.67 0 0 1 -11.33,0 z"
       id="path91" />
    <path
       class="cls-10"
       d="m -91.64,587.62 a 5.67,5.67 0 0 0 11.33,0 v -61.3 a 5.67,5.67 0 0 1 -11.33,0 z"
       id="path92" />
    <path
       class="cls-10"
       d="m -68,579.36 a 5.66,5.66 0 0 0 5.67,-5.66 v -47.54 a 5.67,5.67 0 1 1 -11.33,0 v 47.54 a 5.66,5.66 0 0 0 5.66,5.66 z"
       id="path93" />
    <path
       class="cls-10"
       d="m -49.94,555.78 a 5.67,5.67 0 0 0 5.66,-5.67 V 525.2 a 5.67,5.67 0 1 1 -11.33,0 v 24.91 a 5.67,5.67 0 0 0 5.67,5.67 z"
       id="path94" />
    <path
       class="cls-10"
       d="m -37.59,532.84 a 5.67,5.67 0 0 0 11.33,0 v -9.37 a 5.67,5.67 0 1 1 -11.33,0 z"
       id="path95" />
    <path
       class="cls-12"
       d="m 22,510 a 5.67,5.67 0 0 0 5.67,-5.67 v -10 a 5.67,5.67 0 0 0 -11.33,0 v 10 A 5.66,5.66 0 0 0 22,510 Z"
       id="path96" />
    <path
       class="cls-12"
       d="m 4.1,516.5 a 5.67,5.67 0 0 0 5.67,-5.67 V 490 a 5.67,5.67 0 0 0 -11.33,0 v 20.87 a 5.66,5.66 0 0 0 5.66,5.63 z"
       id="path97" />
    <path
       class="cls-11"
       d="m -8.25,418.66 a 5.67,5.67 0 0 0 -11.33,0 v 68.44 a 5.67,5.67 0 0 1 11.33,0 z"
       id="path98" />
    <path
       class="cls-12"
       d="m -13.91,526 a 5.67,5.67 0 0 0 5.66,-5.65 V 487.1 a 5.67,5.67 0 0 0 -11.33,0 v 33.27 a 5.67,5.67 0 0 0 5.67,5.63 z"
       id="path99" />
    <path
       class="cls-11"
       d="m -26.26,425.24 a 5.67,5.67 0 0 0 -11.33,0 v 61.22 a 5.67,5.67 0 0 1 11.33,0 z"
       id="path100" />
    <path
       class="cls-12"
       d="m -31.93,529.13 a 5.67,5.67 0 0 0 5.67,-5.66 v -37 a 5.67,5.67 0 0 0 -11.33,0 v 37 a 5.66,5.66 0 0 0 5.66,5.66 z"
       id="path101" />
    <path
       class="cls-11"
       d="m -49.94,481 a 5.66,5.66 0 0 1 5.66,5.66 v -47.53 a 5.67,5.67 0 1 0 -11.33,0 v 47.56 a 5.66,5.66 0 0 1 5.67,-5.69 z"
       id="path102" />
    <path
       class="cls-12"
       d="m -49.94,530.87 a 5.67,5.67 0 0 0 5.66,-5.67 v -38.51 a 5.67,5.67 0 0 0 -11.33,0 v 38.51 a 5.67,5.67 0 0 0 5.67,5.67 z"
       id="path103" />
    <path
       class="cls-11"
       d="m -68,482.16 a 5.66,5.66 0 0 1 5.67,5.66 v -25 a 5.67,5.67 0 0 0 -11.33,0 v 25 a 5.66,5.66 0 0 1 5.66,-5.66 z"
       id="path104" />
    <path
       class="cls-12"
       d="m -68,531.83 a 5.67,5.67 0 0 0 5.67,-5.67 v -38.34 a 5.67,5.67 0 0 0 -11.33,0 v 38.34 a 5.67,5.67 0 0 0 5.66,5.67 z"
       id="path105" />
    <path
       class="cls-11"
       d="m -80.31,480 a 5.67,5.67 0 0 0 -11.33,0 v 9.28 a 5.67,5.67 0 0 1 11.33,0 z"
       id="path106" />
    <path
       class="cls-12"
       d="m -86,532 a 5.67,5.67 0 0 0 5.66,-5.66 v -37 a 5.67,5.67 0 0 0 -11.33,0 v 37 A 5.67,5.67 0 0 0 -86,532 Z"
       id="path107" />
    <path
       class="cls-12"
       d="m -104,531.16 a 5.67,5.67 0 0 0 5.67,-5.65 v -32.95 a 5.67,5.67 0 0 0 -11.33,0 v 32.94 a 5.65,5.65 0 0 0 5.66,5.66 z"
       id="path108" />
    <path
       class="cls-12"
       d="m -122,528.81 a 5.67,5.67 0 0 0 5.67,-5.67 v -20.93 a 5.67,5.67 0 0 0 -11.33,0 v 20.93 a 5.67,5.67 0 0 0 5.66,5.67 z"
       id="path109" />
    <path
       class="cls-12"
       d="m -145.68,518.86 a 5.66,5.66 0 0 0 11.32,0 c 0,0 0,-0.06 0,-0.08 v -9.89 a 5.67,5.67 0 0 0 -11.34,0 v 9.89 c 0,0 0.02,0.05 0.02,0.08 z"
       id="path110" />
    <path
       class="cls-12"
       d="m -158,517.2 a 5.67,5.67 0 0 0 5.67,-5.67 v -0.12 a 5.67,5.67 0 0 0 -11.33,0 v 0.12 a 5.67,5.67 0 0 0 5.66,5.67 z"
       id="path111" />
    <path
       class="cls-12"
       d="m 40.12,507 a 5.65,5.65 0 0 0 5.65,-5.6 v -0.06 A 5.65,5.65 0 1 0 40.12,507 Z"
       id="path112" />
  </g>
</svg>
