<?xml version="1.0" encoding="UTF-8" standalone="no"?>
<svg
   viewBox="0 0 1000 600.00001"
   version="1.1"
   id="svg112"
   sodipodi:docname="Logo-mit-text-v6.svg"
   width="1000"
   height="600"
   inkscape:version="1.1.2 (0a00cf5339, 2022-02-04)"
   xmlns:inkscape="http://www.inkscape.org/namespaces/inkscape"
   xmlns:sodipodi="http://sodipodi.sourceforge.net/DTD/sodipodi-0.dtd"
   xmlns="http://www.w3.org/2000/svg"
   xmlns:svg="http://www.w3.org/2000/svg">
  <sodipodi:namedview
     id="namedview112"
     pagecolor="#ffffff"
     bordercolor="#666666"
     borderopacity="1.0"
     inkscape:showpageshadow="2"
     inkscape:pageopacity="0.0"
     inkscape:pagecheckerboard="0"
     inkscape:deskcolor="#d1d1d1"
     inkscape:zoom="1.8541809"
     inkscape:cx="540.13069"
     inkscape:cy="342.19962"
     inkscape:window-width="1920"
     inkscape:window-height="1016"
     inkscape:window-x="0"
     inkscape:window-y="27"
     inkscape:window-maximized="1"
     inkscape:current-layer="Layer_9"
     showgrid="false"
     inkscape:pageshadow="2"
     showguides="false">
    <inkscape:grid
       id="grid119"
       units="px"
       originx="0"
       originy="0"
       spacingx="1"
       spacingy="1"
       empcolor="#3f3fff"
       empopacity="0.25098039"
       color="#3f3fff"
       opacity="0.1254902"
       empspacing="5"
       dotted="false"
       gridanglex="30"
       gridanglez="30"
       visible="false" />
  </sodipodi:namedview>
  <defs
     id="defs1">
    <rect
       x="57.180523"
       y="71.7873"
       width="555.04633"
       height="341.48965"
       id="rect112" />
    <style
       id="style1">.cls-1{fill:#00b7f1;}.cls-2{fill:#a6e2fa;}.cls-3{fill:#004e7c;}.cls-4{fill:#ef4277;}.cls-5{fill:#f9c0d2;}.cls-6{fill:#901f46;}.cls-7{fill:#ff9e18;}.cls-8{fill:#ffc27a;}.cls-9{fill:#d77900;}.cls-10{fill:#4cb748;}.cls-11{fill:#94d491;}.cls-12{fill:#145f1f;}</style>
  </defs>
  <g
     id="Layer_9"
     data-name="Layer 9"
     transform="translate(280.41595,-165.36231)">
    <path
       class="cls-1"
       d="m 577.72639,259.01472 a 5.7049191,5.7715834 0 0 0 -5.715,5.77159 v 39.34058 a 5.7149985,5.7817806 0 1 1 11.41992,0 v -39.34058 a 5.6948397,5.7613863 0 0 0 -5.70492,-5.77159 z"
       id="path1"
       style="stroke-width:1.01381" />
    <path
       class="cls-1"
       d="m 559.3114,239.41581 a 5.9569032,6.026512 0 0 0 -5.45294,6.11829 v 51.09789 0 a 5.7149985,5.7817806 0 0 1 11.41992,0 v 0 -51.44459 a 5.7149985,5.7817806 0 0 0 -5.96698,-5.77159 z"
       id="path2"
       style="stroke-width:1.01381" />
    <path
       class="cls-1"
       d="m 541.41045,220.70405 a 5.7149985,5.7817806 0 0 0 -5.715,5.78179 v 65.83276 a 5.7149985,5.7817806 0 0 1 11.41992,0 v -65.83276 a 5.7049191,5.7715834 0 0 0 -5.70492,-5.78179 z"
       id="path3"
       style="stroke-width:1.01381" />
    <path
       class="cls-2"
       d="m 377.99375,320.28936 a 5.6948397,5.7613863 0 0 1 -5.69484,-5.76138 v 0 0 38.74914 a 5.7149985,5.7817806 0 1 0 11.41991,0 v -38.74914 a 5.6948397,5.7613863 0 0 1 -5.72507,5.76138 z"
       id="path4"
       style="stroke-width:1.01381" />
    <path
       class="cls-2"
       d="m 396.25755,327.38657 a 5.7049191,5.7715834 0 0 1 -5.70492,-5.78178 v 51.46499 a 5.7149985,5.7817806 0 1 0 11.41992,0 v -51.46499 a 5.7149985,5.7817806 0 0 1 -5.715,5.78178 z"
       id="path5"
       style="stroke-width:1.01381" />
    <path
       class="cls-2"
       d="m 414.29961,331.90391 a 5.7049191,5.7715834 0 0 1 -5.70492,-5.78178 v 65.87355 a 5.7149985,5.7817806 0 1 0 11.41992,0 v -65.87355 a 5.7149985,5.7817806 0 0 1 -5.715,5.78178 z"
       id="path6"
       style="stroke-width:1.01381" />
    <path
       class="cls-1"
       d="m 528.79943,224.54702 a 5.67,5.67 0 0 0 -11.33,0 v 68.74 a 5.67,5.67 0 1 1 11.33,0 z"
       id="path7" />
    <path
       class="cls-1"
       d="m 510.79943,226.54702 a 5.7149985,5.7817806 0 1 0 -11.41992,0 v 62.50849 a 5.7149985,5.7817806 0 0 1 11.41992,0 z"
       id="path8"
       style="stroke-width:1.01381" />
    <path
       class="cls-1"
       d="m 486.9315,234.95966 a 5.7049191,5.7715834 0 0 0 -5.70492,5.77159 v 48.5282 a 5.7049191,5.7715834 0 0 1 11.40983,0 v -48.5282 a 5.7049191,5.7715834 0 0 0 -5.70491,-5.77159 z"
       id="path9"
       style="stroke-width:1.01381" />
    <path
       class="cls-1"
       d="m 468.77856,259.01472 a 5.7049191,5.7715834 0 0 0 -5.71499,5.77159 v 25.40108 a 5.7149985,5.7817806 0 0 1 11.41991,0 v -25.40108 a 5.6948397,5.7613863 0 0 0 -5.70492,-5.77159 z"
       id="path10"
       style="stroke-width:1.01381" />
    <path
       class="cls-1"
       d="m 456.33055,282.40697 a 5.7149985,5.7817806 0 1 0 -11.41992,0 v 9.54453 a 5.7149985,5.7817806 0 0 1 11.41992,0 z"
       id="path11"
       style="stroke-width:1.01381" />
    <path
       class="cls-3"
       d="m 396.25755,305.65646 a 5.6948397,5.7613863 0 0 0 -5.70492,5.77158 v 10.19715 a 5.7149985,5.7817806 0 1 0 11.41992,0 v -10.19715 a 5.7049191,5.7715834 0 0 0 -5.715,-5.77158 z"
       id="path12"
       style="stroke-width:1.01381" />
    <path
       class="cls-3"
       d="m 414.29961,299.06911 a 5.6948397,5.7613863 0 0 0 -5.70492,5.77158 v 21.28144 a 5.7149985,5.7817806 0 1 0 11.41992,0 v -21.28144 a 5.7049191,5.7715834 0 0 0 -5.715,-5.77158 z"
       id="path13"
       style="stroke-width:1.01381" />
    <path
       class="cls-2"
       d="m 426.74762,398.82776 a 5.7149985,5.7817806 0 1 0 11.41992,0 v -69.79945 a 5.7149985,5.7817806 0 1 1 -11.41992,0 z"
       id="path14"
       style="stroke-width:1.01381" />
    <path
       class="cls-3"
       d="m 432.46262,289.34103 a 5.7149985,5.7817806 0 0 0 -5.715,5.76139 v 33.92589 a 5.7149985,5.7817806 0 1 0 11.41992,0 v -33.9157 a 5.6948397,5.7613863 0 0 0 -5.70492,-5.77158 z"
       id="path15"
       style="stroke-width:1.01381" />
    <path
       class="cls-2"
       d="m 444.91063,392.11804 a 5.7149985,5.7817806 0 1 0 11.41992,0 v -62.41671 a 5.7149985,5.7817806 0 1 1 -11.41992,0 z"
       id="path16"
       style="stroke-width:1.01381" />
    <path
       class="cls-3"
       d="m 450.61555,286.20031 a 5.7049191,5.7715834 0 0 0 -5.70492,5.76139 v 37.72943 a 5.7149985,5.7817806 0 1 0 11.41992,0 V 291.9617 a 5.7049191,5.7715834 0 0 0 -5.715,-5.76139 z"
       id="path17"
       style="stroke-width:1.01381" />
    <path
       class="cls-2"
       d="m 468.77856,335.23837 a 5.7149985,5.7817806 0 0 1 -5.71499,-5.78178 v 48.51801 a 5.7149985,5.7817806 0 0 0 11.41991,0 v -48.51801 a 5.7049191,5.7715834 0 0 1 -5.70492,5.78178 z"
       id="path18"
       style="stroke-width:1.01381" />
    <path
       class="cls-3"
       d="m 468.77856,284.41581 a 5.7049191,5.7715834 0 0 0 -5.71499,5.77158 v 39.2692 a 5.7149985,5.7817806 0 1 0 11.41991,0 v -39.2692 a 5.6948397,5.7613863 0 0 0 -5.70492,-5.77158 z"
       id="path19"
       style="stroke-width:1.01381" />
    <path
       class="cls-2"
       d="m 486.9315,334.12689 a 5.7049191,5.7715834 0 0 1 -5.70492,-5.77159 v 25.49286 a 5.7049191,5.7715834 0 0 0 11.40983,0 V 328.3553 a 5.7049191,5.7715834 0 0 1 -5.70491,5.77159 z"
       id="path20"
       style="stroke-width:1.01381" />
    <path
       class="cls-3"
       d="m 486.9315,283.43688 a 5.6948397,5.7613863 0 0 0 -5.70492,5.77159 v 39.10604 a 5.7049191,5.7715834 0 0 0 11.40983,0 v -39.05506 a 5.6948397,5.7613863 0 0 0 -5.70491,-5.82257 z"
       id="path21"
       style="stroke-width:1.01381" />
    <path
       class="cls-2"
       d="m 499.37951,336.25809 a 5.7149985,5.7817806 0 1 0 11.41992,0 v -9.45275 a 5.7149985,5.7817806 0 1 1 -11.41992,0 z"
       id="path22"
       style="stroke-width:1.01381" />
    <path
       class="cls-3"
       d="m 505.09451,283.28393 a 5.7149985,5.7817806 0 0 0 -5.715,5.77158 v 37.72943 a 5.7149985,5.7817806 0 1 0 11.41992,0 v -37.72943 a 5.7049191,5.7715834 0 0 0 -5.70492,-5.77158 z"
       id="path23"
       style="stroke-width:1.01381" />
    <path
       class="cls-3"
       d="m 523.24744,284.16088 a 5.7049191,5.7715834 0 0 0 -5.70492,5.77158 v 33.5894 a 5.7149985,5.7817806 0 0 0 11.41992,0 v -33.63018 a 5.7149985,5.7817806 0 0 0 -5.715,-5.7308 z"
       id="path24"
       style="stroke-width:1.01381" />
    <path
       class="cls-3"
       d="m 541.41045,286.51642 a 5.7049191,5.7715834 0 0 0 -5.715,5.77158 v 21.34263 a 5.7149985,5.7817806 0 1 0 11.41992,0 V 292.3186 a 5.6948397,5.7613863 0 0 0 -5.70492,-5.80218 z"
       id="path25"
       style="stroke-width:1.01381" />
    <path
       class="cls-3"
       d="m 565.27838,296.66258 a 5.7149985,5.7817806 0 0 0 -11.41992,0 v 10.19714 a 5.7149985,5.7817806 0 1 0 11.41992,0 z"
       id="path26"
       style="stroke-width:1.01381" />
    <path
       class="cls-3"
       d="m 577.72639,298.34511 a 5.7149985,5.7817806 0 0 0 -5.715,5.78178 0.62492047,0.63222292 0 0 0 0,0.13256 5.70492,5.7715843 0 0 0 11.40984,0 v -0.13256 a 5.7049191,5.7715834 0 0 0 -5.69484,-5.78178 z"
       id="path27"
       style="stroke-width:1.01381" />
    <path
       class="cls-3"
       d="m 377.99375,308.76659 a 5.6948397,5.7613863 0 0 0 -5.69484,5.7104 v 0 a 5.7049191,5.7715834 0 1 0 5.69484,-5.76139 z"
       id="path28"
       style="stroke-width:1.01381" />
    <path
       class="cls-4"
       d="m 670.38597,500.34033 a 5.7049191,5.7715834 0 0 0 -5.70492,-5.78178 h -65.0522 a 5.7149985,5.7817806 0 0 1 0,11.56356 h 65.0522 a 5.7049191,5.7715834 0 0 0 5.70492,-5.78178 z"
       id="path29"
       style="stroke-width:1.01381" />
    <path
       class="cls-4"
       d="m 671.29311,487.75706 a 5.7149985,5.7817806 0 1 0 0,-11.55337 h -69.27546 a 5.7149985,5.7817806 0 0 1 0,11.55337 z"
       id="path30"
       style="stroke-width:1.01381" />
    <path
       class="cls-4"
       d="m 664.62057,469.3818 a 5.7149985,5.7817806 0 0 0 0,-11.55336 h -61.78649 a 5.7149985,5.7817806 0 1 1 0,11.55336 z"
       id="path31"
       style="stroke-width:1.01381" />
    <path
       class="cls-4"
       d="m 656.29502,445.27575 a 5.6948397,5.7613863 0 0 0 -5.70492,-5.77158 h -47.90721 a 5.7049207,5.771585 0 0 1 0,11.54317 h 47.90721 a 5.6948397,5.7613863 0 0 0 5.70492,-5.77159 z"
       id="path32"
       style="stroke-width:1.01381" />
    <path
       class="cls-4"
       d="m 632.52788,426.9209 a 5.7149985,5.7817806 0 0 0 -5.71499,-5.78178 h -25.1077 a 5.7149985,5.7817806 0 1 1 0,11.55336 h 25.1077 a 5.7049191,5.7715834 0 0 0 5.71499,-5.77158 z"
       id="path33"
       style="stroke-width:1.01381" />
    <path
       class="cls-4"
       d="m 609.40583,414.27644 a 5.7149985,5.7817806 0 0 0 0,-11.55337 h -9.44437 a 5.7149985,5.7817806 0 1 1 0,11.55337 z"
       id="path34"
       style="stroke-width:1.01381" />
    <path
       class="cls-4"
       d="m 632.52788,537.05005 a 5.7149985,5.7817806 0 0 0 -5.71499,-5.78178 h -38.88618 a 5.7149985,5.7817806 0 0 1 0,11.56356 h 38.88618 a 5.7149985,5.7817806 0 0 0 5.71499,-5.78178 z"
       id="path35"
       style="stroke-width:1.01381" />
    <path
       class="cls-4"
       d="M 651.89034,518.46066 A 5.9569032,6.026512 0 0 0 645.84272,512.944 H 595.3552 a 5.7149985,5.7817806 0 0 1 0,11.55337 h 50.87054 a 5.7049191,5.7715834 0 0 0 5.6646,-6.03671 z"
       id="path36"
       style="stroke-width:1.01381" />
    <path
       class="cls-5"
       d="m 571.95092,335.02423 a 5.6948397,5.7613863 0 0 1 5.70492,-5.76138 v 0 0 h -38.30158 a 5.7149985,5.7817806 0 0 0 0,11.55336 h 38.30158 a 5.6948397,5.7613863 0 0 1 -5.70492,-5.79198 z"
       id="path37"
       style="stroke-width:1.01381" />
    <path
       class="cls-5"
       d="m 564.94576,353.50146 a 5.7049191,5.7715834 0 0 1 5.70492,-5.77158 h -50.8907 a 5.7149985,5.7817806 0 0 0 0,11.55336 h 50.87054 a 5.7149985,5.7817806 0 0 1 -5.68476,-5.78178 z"
       id="path38"
       style="stroke-width:1.01381" />
    <path
       class="cls-5"
       d="m 560.4806,371.75435 a 5.7049191,5.7715834 0 0 1 5.715,-5.77159 h -65.12276 a 5.7149985,5.7817806 0 0 0 0,11.55337 h 65.12276 a 5.7149985,5.7817806 0 0 1 -5.715,-5.78178 z"
       id="path39"
       style="stroke-width:1.01381" />
    <path
       class="cls-6"
       d="m 586.42488,353.50146 a 5.7049191,5.7715834 0 0 0 -5.715,-5.77158 h -10.07936 a 5.7149985,5.7817806 0 0 0 0,11.55336 h 10.07936 a 5.7149985,5.7817806 0 0 0 5.715,-5.78178 z"
       id="path40"
       style="stroke-width:1.01381" />
    <path
       class="cls-6"
       d="m 592.93615,371.75435 a 5.7049191,5.7715834 0 0 0 -5.715,-5.77159 H 566.1956 a 5.7149985,5.7817806 0 1 0 0,11.55337 h 21.02555 a 5.7149985,5.7817806 0 0 0 5.715,-5.78178 z"
       id="path41"
       style="stroke-width:1.01381" />
    <path
       class="cls-5"
       d="m 494.32975,384.34782 a 5.7149985,5.7817806 0 1 0 0,11.55336 h 68.97307 a 5.7149985,5.7817806 0 0 1 0,-11.55336 z"
       id="path42"
       style="stroke-width:1.01381" />
    <path
       class="cls-6"
       d="m 602.55186,390.1296 a 5.7149985,5.7817806 0 0 0 -5.69484,-5.78178 h -33.5542 a 5.7149985,5.7817806 0 0 0 0,11.55336 h 33.53404 a 5.7049191,5.7715834 0 0 0 5.715,-5.77158 z"
       id="path43"
       style="stroke-width:1.01381" />
    <path
       class="cls-5"
       d="m 500.95189,402.72307 a 5.7149985,5.7817806 0 0 0 0,11.55337 h 61.70585 a 5.7149985,5.7817806 0 0 1 0,-11.55337 z"
       id="path44"
       style="stroke-width:1.01381" />
    <path
       class="cls-6"
       d="m 605.66638,408.49466 a 5.7049191,5.7715834 0 0 0 -5.70492,-5.77159 h -37.29364 a 5.7149985,5.7817806 0 0 0 0,11.55337 h 37.29364 a 5.7149985,5.7817806 0 0 0 5.70492,-5.78178 z"
       id="path45"
       style="stroke-width:1.01381" />
    <path
       class="cls-5"
       d="m 557.18465,426.9209 a 5.7149985,5.7817806 0 0 1 5.70492,-5.78178 h -47.93745 a 5.7149985,5.7817806 0 1 0 0,11.55336 h 47.93745 a 5.7049191,5.7715834 0 0 1 -5.70492,-5.77158 z"
       id="path46"
       style="stroke-width:1.01381" />
    <path
       class="cls-6"
       d="m 607.45043,426.9209 a 5.7149985,5.7817806 0 0 0 -5.715,-5.78178 h -38.84586 a 5.7149985,5.7817806 0 0 0 0,11.55336 h 38.81562 a 5.7049191,5.7715834 0 0 0 5.74524,-5.77158 z"
       id="path47"
       style="stroke-width:1.01381" />
    <path
       class="cls-5"
       d="m 558.32362,445.27575 a 5.6948397,5.7613863 0 0 1 5.70492,-5.77158 h -25.19841 a 5.7049207,5.771585 0 1 0 0,11.54317 h 25.19841 a 5.6948397,5.7613863 0 0 1 -5.70492,-5.77159 z"
       id="path48"
       style="stroke-width:1.01381" />
    <path
       class="cls-6"
       d="m 608.38781,445.27575 a 5.7049191,5.7715834 0 0 0 -5.70492,-5.77158 h -38.65435 a 5.7049207,5.771585 0 1 0 0,11.54317 h 38.65435 a 5.7049191,5.7715834 0 0 0 5.70492,-5.77159 z"
       id="path49"
       style="stroke-width:1.01381" />
    <path
       class="cls-5"
       d="m 556.16664,457.82844 a 5.7149985,5.7817806 0 0 0 0,11.55336 h 9.35364 a 5.7149985,5.7817806 0 1 1 0,-11.55336 z"
       id="path50"
       style="stroke-width:1.01381" />
    <path
       class="cls-6"
       d="m 608.539,463.63061 a 5.7250778,5.7919777 0 0 0 -5.70492,-5.78178 h -37.29364 a 5.7149985,5.7817806 0 1 0 0,11.55337 h 37.29364 a 5.7049191,5.7715834 0 0 0 5.70492,-5.77159 z"
       id="path51"
       style="stroke-width:1.01381" />
    <path
       class="cls-6"
       d="m 607.72257,481.98547 a 5.7149985,5.7817806 0 0 0 -5.70492,-5.77158 h -33.26189 a 5.7149985,5.7817806 0 0 0 0,11.55336 h 33.26189 a 5.7149985,5.7817806 0 0 0 5.70492,-5.78178 z"
       id="path52"
       style="stroke-width:1.01381" />
    <path
       class="cls-6"
       d="m 605.34384,500.34033 a 5.7149985,5.7817806 0 0 0 -5.71499,-5.78178 h -21.08603 a 5.7149985,5.7817806 0 0 0 0,11.56356 h 21.08603 a 5.7149985,5.7817806 0 0 0 5.71499,-5.78178 z"
       id="path53"
       style="stroke-width:1.01381" />
    <path
       class="cls-6"
       d="m 595.3552,524.49737 a 5.7149985,5.7817806 0 0 0 0,-11.55337 h -10.07937 a 5.7149985,5.7817806 0 0 0 0,11.55337 z"
       id="path54"
       style="stroke-width:1.01381" />
    <path
       class="cls-6"
       d="m 593.6417,537.05005 a 5.7149985,5.7817806 0 0 0 -5.71499,-5.78178 h -0.12096 a 5.7049207,5.771585 0 0 0 0,11.54317 h 0.12096 a 5.7149985,5.7817806 0 0 0 5.71499,-5.76139 z"
       id="path55"
       style="stroke-width:1.01381" />
    <path
       class="cls-6"
       d="m 583.35068,335.02423 a 5.6948397,5.7613863 0 0 0 -5.64445,-5.76138 v 0 a 5.7049191,5.7715834 0 1 0 5.69484,5.76138 z"
       id="path56"
       style="stroke-width:1.01381" />
    <path
       class="cls-7"
       d="m 302.54972,314.4464 a 5.7149985,5.7817806 0 0 0 5.715,5.78178 h 38.8761 a 5.7149985,5.7817806 0 0 1 0,-11.55337 h -38.8761 a 5.7049191,5.7715834 0 0 0 -5.715,5.77159 z"
       id="path57"
       style="stroke-width:1.01381" />
    <path
       class="cls-7"
       d="m 283.17719,333.10717 a 5.9569032,6.026512 0 0 0 6.04761,5.50646 h 50.50769 a 5.7049207,5.771585 0 0 1 0,-11.54317 H 288.8821 a 5.7149985,5.7817806 0 0 0 -5.70491,6.03671 z"
       id="path58"
       style="stroke-width:1.01381" />
    <path
       class="cls-7"
       d="m 264.69163,351.18671 a 5.7049191,5.7715834 0 0 0 5.70492,5.78178 h 65.05221 a 5.7149985,5.7817806 0 1 1 0,-11.55337 h -65.05221 a 5.6948397,5.7613863 0 0 0 -5.70492,5.77159 z"
       id="path59"
       style="stroke-width:1.01381" />
    <path
       class="cls-8"
       d="m 363.12669,516.513 a 5.6948397,5.7613863 0 0 1 -5.70492,5.76139 h -0.0504 0.0504 38.30158 a 5.7149985,5.7817806 0 0 0 0,-11.56356 h -38.30158 a 5.7049191,5.7715834 0 0 1 5.70492,5.80217 z"
       id="path60"
       style="stroke-width:1.01381" />
    <path
       class="cls-8"
       d="m 370.13184,498.03578 a 5.7149985,5.7817806 0 0 1 -5.71499,5.78178 h 50.88062 a 5.7149985,5.7817806 0 0 0 0,-11.56356 h -50.88062 a 5.7149985,5.7817806 0 0 1 5.71499,5.78178 z"
       id="path61"
       style="stroke-width:1.01381" />
    <path
       class="cls-8"
       d="m 374.61716,479.78289 a 5.7149985,5.7817806 0 0 1 -5.715,5.78178 h 65.12276 a 5.7149985,5.7817806 0 0 0 0,-11.56356 H 368.882 a 5.7149985,5.7817806 0 0 1 5.73516,5.78178 z"
       id="path62"
       style="stroke-width:1.01381" />
    <path
       class="cls-7"
       d="m 263.74417,363.78018 a 5.7149985,5.7817806 0 1 0 0,11.55336 h 69.27546 a 5.7149985,5.7817806 0 1 1 0,-11.55336 z"
       id="path63"
       style="stroke-width:1.01381" />
    <path
       class="cls-7"
       d="m 270.45703,382.15543 a 5.7149985,5.7817806 0 0 0 0,11.55337 h 61.82681 a 5.7149985,5.7817806 0 0 1 0,-11.55337 z"
       id="path64"
       style="stroke-width:1.01381" />
    <path
       class="cls-7"
       d="m 278.7725,406.30227 a 5.7149985,5.7817806 0 0 0 5.715,5.78178 h 47.90721 a 5.7149985,5.7817806 0 0 1 0,-11.55336 H 284.4875 a 5.7149985,5.7817806 0 0 0 -5.715,5.77158 z"
       id="path65"
       style="stroke-width:1.01381" />
    <path
       class="cls-7"
       d="m 302.54972,424.66733 a 5.7149985,5.7817806 0 0 0 5.715,5.78178 h 25.09761 a 5.7149985,5.7817806 0 0 1 0,-11.55337 h -25.09761 a 5.7149985,5.7817806 0 0 0 -5.715,5.77159 z"
       id="path66"
       style="stroke-width:1.01381" />
    <path
       class="cls-7"
       d="m 325.67178,437.2608 a 5.7149985,5.7817806 0 0 0 0,11.56356 h 9.44436 a 5.7149985,5.7817806 0 0 1 0,-11.56356 z"
       id="path67"
       style="stroke-width:1.01381" />
    <path
       class="cls-9"
       d="m 348.65272,498.03578 a 5.7149985,5.7817806 0 0 0 5.715,5.78178 h 10.07936 a 5.7149985,5.7817806 0 0 0 0,-11.56356 h -10.07936 a 5.7149985,5.7817806 0 0 0 -5.715,5.78178 z"
       id="path68"
       style="stroke-width:1.01381" />
    <path
       class="cls-9"
       d="m 342.14145,479.78289 a 5.7149985,5.7817806 0 0 0 5.715,5.78178 H 368.882 a 5.7149985,5.7817806 0 1 0 0,-11.56356 h -21.02555 a 5.7149985,5.7817806 0 0 0 -5.715,5.78178 z"
       id="path69"
       style="stroke-width:1.01381" />
    <path
       class="cls-8"
       d="m 440.74786,467.18942 a 5.7149985,5.7817806 0 1 0 0,-11.55337 h -68.97308 a 5.7149985,5.7817806 0 0 1 0,11.55337 z"
       id="path70"
       style="stroke-width:1.01381" />
    <path
       class="cls-9"
       d="m 332.52574,461.41783 a 5.7149985,5.7817806 0 0 0 5.69484,5.77159 h 33.5542 a 5.7149985,5.7817806 0 0 0 0,-11.55337 h -33.53404 a 5.7149985,5.7817806 0 0 0 -5.715,5.78178 z"
       id="path71"
       style="stroke-width:1.01381" />
    <path
       class="cls-8"
       d="m 434.0854,448.82436 a 5.7149985,5.7817806 0 0 0 0,-11.56356 h -61.66554 a 5.7149985,5.7817806 0 0 1 0,11.56356 z"
       id="path72"
       style="stroke-width:1.01381" />
    <path
       class="cls-9"
       d="m 329.41122,443.04258 a 5.7149985,5.7817806 0 0 0 5.70492,5.78178 h 37.29364 a 5.7149985,5.7817806 0 0 0 0,-11.56356 h -37.29364 a 5.7149985,5.7817806 0 0 0 -5.70492,5.78178 z"
       id="path73"
       style="stroke-width:1.01381" />
    <path
       class="cls-8"
       d="m 377.89295,424.66733 a 5.7149985,5.7817806 0 0 1 -5.715,5.78178 h 47.94753 a 5.7149985,5.7817806 0 1 0 0,-11.55337 h -47.94753 a 5.7149985,5.7817806 0 0 1 5.715,5.77159 z"
       id="path74"
       style="stroke-width:1.01381" />
    <path
       class="cls-9"
       d="m 327.65741,424.66733 a 5.7149985,5.7817806 0 0 0 5.70492,5.78178 h 38.81562 a 5.7149985,5.7817806 0 1 0 0,-11.55337 h -38.81562 a 5.7149985,5.7817806 0 0 0 -5.70492,5.77159 z"
       id="path75"
       style="stroke-width:1.01381" />
    <path
       class="cls-8"
       d="m 376.75399,406.30227 a 5.7049191,5.7715834 0 0 1 -5.70492,5.78178 h 25.1984 a 5.7149985,5.7817806 0 0 0 0,-11.55336 h -25.1984 a 5.7049191,5.7715834 0 0 1 5.70492,5.77158 z"
       id="path76"
       style="stroke-width:1.01381" />
    <path
       class="cls-9"
       d="m 326.68979,406.30227 a 5.7149985,5.7817806 0 0 0 5.70492,5.78178 h 38.65436 a 5.7149985,5.7817806 0 0 0 0,-11.55336 h -38.65436 a 5.7149985,5.7817806 0 0 0 -5.70492,5.77158 z"
       id="path77"
       style="stroke-width:1.01381" />
    <path
       class="cls-8"
       d="m 378.91097,393.7088 a 5.7149985,5.7817806 0 0 0 0,-11.55337 h -9.33349 a 5.7149985,5.7817806 0 1 1 0,11.55337 z"
       id="path78"
       style="stroke-width:1.01381" />
    <path
       class="cls-9"
       d="m 326.5386,387.92702 a 5.7149985,5.7817806 0 0 0 5.70492,5.78178 h 37.29364 a 5.7149985,5.7817806 0 1 0 0,-11.55337 h -37.25332 a 5.7149985,5.7817806 0 0 0 -5.74524,5.77159 z"
       id="path79"
       style="stroke-width:1.01381" />
    <path
       class="cls-9"
       d="m 327.35503,369.56196 a 5.7049191,5.7715834 0 0 0 5.70492,5.77158 h 33.2619 a 5.7149985,5.7817806 0 0 0 0,-11.55336 h -33.2619 a 5.7149985,5.7817806 0 0 0 -5.70492,5.78178 z"
       id="path80"
       style="stroke-width:1.01381" />
    <path
       class="cls-9"
       d="m 329.73376,351.18671 a 5.7149985,5.7817806 0 0 0 5.715,5.78178 h 21.08602 a 5.7149985,5.7817806 0 1 0 0,-11.55337 h -21.08602 a 5.7049191,5.7715834 0 0 0 -5.715,5.77159 z"
       id="path81"
       style="stroke-width:1.01381" />
    <path
       class="cls-9"
       d="m 339.76273,327.05007 a 5.7049207,5.771585 0 0 0 0,11.54317 h 10.07936 a 5.7149985,5.7817806 0 0 0 0,-11.55337 h -10.07936 z"
       id="path82"
       style="stroke-width:1.01381" />
    <path
       class="cls-9"
       d="m 341.4359,314.4464 a 5.7149985,5.7817806 0 0 0 5.70492,5.78178 h 0.13103 a 5.7149985,5.7817806 0 0 0 0,-11.55337 h -0.13103 a 5.7049191,5.7715834 0 0 0 -5.70492,5.77159 z"
       id="path83"
       style="stroke-width:1.01381" />
    <path
       class="cls-9"
       d="m 351.72693,516.513 a 5.6948397,5.7613863 0 0 0 5.64444,5.76139 h 0.0504 a 5.7049191,5.7715834 0 1 0 -5.69484,-5.76139 z"
       id="path84"
       style="stroke-width:1.01381" />
    <path
       class="cls-10"
       d="m 357.48224,592.91 a 5.7149985,5.7817806 0 0 0 5.715,-5.78178 v -39.34058 a 5.7149985,5.7817806 0 1 1 -11.41991,0 v 39.34058 a 5.7149985,5.7817806 0 0 0 5.70491,5.78178 z"
       id="path85"
       style="stroke-width:1.01381" />
    <path
       class="cls-10"
       d="m 375.867,612.50891 a 5.9569032,6.026512 0 0 0 5.45294,-6.11828 v -51.13868 0 a 5.70492,5.7715843 0 0 1 -11.40984,0 v 0 51.47518 a 5.7049191,5.7715834 0 0 0 5.9569,5.78178 z"
       id="path86"
       style="stroke-width:1.01381" />
    <path
       class="cls-10"
       d="m 393.76795,631.21048 a 5.7049191,5.7715834 0 0 0 5.715,-5.77159 v -65.81236 a 5.7149985,5.7817806 0 1 1 -11.41992,0 v 65.81236 a 5.7049191,5.7715834 0 0 0 5.70492,5.77159 z"
       id="path87"
       style="stroke-width:1.01381" />
    <path
       class="cls-11"
       d="m 557.17457,531.62517 a 5.6948397,5.7613863 0 0 1 5.69484,5.76139 v 0.0612 -0.0612 -38.74915 a 5.7149985,5.7817806 0 0 0 -11.41992,0 v 38.74915 a 5.6948397,5.7613863 0 0 1 5.72508,-5.76139 z"
       id="path88"
       style="stroke-width:1.01381" />
    <path
       class="cls-11"
       d="m 538.91077,524.53815 a 5.7049191,5.7715834 0 0 1 5.715,5.77159 v -51.46499 a 5.7149985,5.7817806 0 0 0 -11.41992,0 v 51.46499 a 5.6948397,5.7613863 0 0 1 5.70492,-5.77159 z"
       id="path89"
       style="stroke-width:1.01381" />
    <path
       class="cls-11"
       d="m 520.86871,520.02082 a 5.7149985,5.7817806 0 0 1 5.715,5.77158 v -65.87355 a 5.7149985,5.7817806 0 0 0 -11.41992,0 v 65.91434 a 5.7049191,5.7715834 0 0 1 5.70492,-5.81237 z"
       id="path90"
       style="stroke-width:1.01381" />
    <path
       class="cls-10"
       d="m 406.20588,632.12822 a 5.715,5.7817821 0 1 0 11.43,0 v -70.08497 a 5.7149985,5.7817806 0 0 1 -11.41992,0 z"
       id="path91"
       style="stroke-width:1.01381" />
    <path
       class="cls-10"
       d="m 423.76795,625.21048 a 5.7149985,5.7817806 0 0 0 11.41992,0 v -62.50849 a 5.7149985,5.7817806 0 0 1 -11.41992,0 z"
       id="path92"
       style="stroke-width:1.01381" />
    <path
       class="cls-10"
       d="m 448.19651,614.95487 a 5.7049191,5.7715834 0 0 0 5.71499,-5.77158 v -48.47723 a 5.7149985,5.7817806 0 1 1 -11.41991,0 v 48.47723 a 5.7049191,5.7715834 0 0 0 5.70492,5.77158 z"
       id="path93"
       style="stroke-width:1.01381" />
    <path
       class="cls-10"
       d="m 466.39983,592.91 a 5.7149985,5.7817806 0 0 0 5.70492,-5.78178 v -25.40108 a 5.7149985,5.7817806 0 1 1 -11.41991,0 v 25.40108 a 5.7149985,5.7817806 0 0 0 5.71499,5.78178 z"
       id="path94"
       style="stroke-width:1.01381" />
    <path
       class="cls-10"
       d="m 478.84785,569.51776 a 5.7149985,5.7817806 0 0 0 11.41991,0 v -9.55473 a 5.7149985,5.7817806 0 1 1 -11.41991,0 z"
       id="path95"
       style="stroke-width:1.01381" />
    <path
       class="cls-12"
       d="m 538.91077,546.22748 a 5.7149985,5.7817806 0 0 0 5.715,-5.78178 v -10.19715 a 5.7149985,5.7817806 0 0 0 -11.41992,0 v 10.19715 a 5.7049191,5.7715834 0 0 0 5.70492,5.78178 z"
       id="path96"
       style="stroke-width:1.01381" />
    <path
       class="cls-12"
       d="m 520.86871,552.85562 a 5.7149985,5.7817806 0 0 0 5.715,-5.78178 v -21.24065 a 5.7149985,5.7817806 0 0 0 -11.41992,0 v 21.28144 a 5.7049191,5.7715834 0 0 0 5.70492,5.74099 z"
       id="path97"
       style="stroke-width:1.01381" />
    <path
       class="cls-11"
       d="m 508.4207,453.08677 a 5.7149985,5.7817806 0 0 0 -11.41992,0 v 69.78925 a 5.7149985,5.7817806 0 0 1 11.41992,0 z"
       id="path98"
       style="stroke-width:1.01381" />
    <path
       class="cls-12"
       d="m 502.71578,562.54291 a 5.7149985,5.7817806 0 0 0 5.70492,-5.76139 v -33.9055 a 5.7149985,5.7817806 0 0 0 -11.41992,0 v 33.9259 a 5.7149985,5.7817806 0 0 0 5.715,5.74099 z"
       id="path99"
       style="stroke-width:1.01381" />
    <path
       class="cls-11"
       d="m 490.26776,459.79649 a 5.7149985,5.7817806 0 0 0 -11.41991,0 v 62.42691 a 5.7149985,5.7817806 0 0 1 11.41991,0 z"
       id="path100"
       style="stroke-width:1.01381" />
    <path
       class="cls-12"
       d="m 484.55277,565.73462 a 5.7149985,5.7817806 0 0 0 5.71499,-5.77159 V 522.2336 a 5.7149985,5.7817806 0 0 0 -11.41991,0 v 37.72943 a 5.7049191,5.7715834 0 0 0 5.70492,5.77159 z"
       id="path101"
       style="stroke-width:1.01381" />
    <path
       class="cls-11"
       d="m 466.39983,516.65576 a 5.7049191,5.7715834 0 0 1 5.70492,5.77159 v -48.46703 a 5.7149985,5.7817806 0 1 0 -11.41991,0 v 48.49762 a 5.7049191,5.7715834 0 0 1 5.71499,-5.80218 z"
       id="path102"
       style="stroke-width:1.01381" />
    <path
       class="cls-12"
       d="m 466.39983,567.50892 a 5.7149985,5.7817806 0 0 0 5.70492,-5.78178 v -39.2692 a 5.7149985,5.7817806 0 0 0 -11.41991,0 v 39.2692 a 5.7149985,5.7817806 0 0 0 5.71499,5.78178 z"
       id="path103"
       style="stroke-width:1.01381" />
    <path
       class="cls-11"
       d="m 448.19651,517.83863 a 5.7049191,5.7715834 0 0 1 5.71499,5.77158 v -25.49286 a 5.7149985,5.7817806 0 0 0 -11.41991,0 v 25.49286 a 5.7049191,5.7715834 0 0 1 5.70492,-5.77158 z"
       id="path104"
       style="stroke-width:1.01381" />
    <path
       class="cls-12"
       d="m 448.19651,568.48784 a 5.7149985,5.7817806 0 0 0 5.71499,-5.78178 v -39.09585 a 5.7149985,5.7817806 0 0 0 -11.41991,0 v 39.09585 a 5.7149985,5.7817806 0 0 0 5.70492,5.78178 z"
       id="path105"
       style="stroke-width:1.01381" />
    <path
       class="cls-11"
       d="m 435.78881,515.63605 a 5.7149985,5.7817806 0 0 0 -11.41992,0 v 9.46295 a 5.7149985,5.7817806 0 0 1 11.41992,0 z"
       id="path106"
       style="stroke-width:1.01381" />
    <path
       class="cls-12"
       d="m 430.05365,568.6612 a 5.7149985,5.7817806 0 0 0 5.70492,-5.77159 v -37.72943 a 5.7149985,5.7817806 0 0 0 -11.41991,0 v 37.72943 a 5.7149985,5.7817806 0 0 0 5.71499,5.77159 z"
       id="path107"
       style="stroke-width:1.01381" />
    <path
       class="cls-12"
       d="m 411.9108,567.80464 a 5.7149985,5.7817806 0 0 0 5.715,-5.76139 v -33.59959 a 5.7149985,5.7817806 0 0 0 -11.41992,0 v 33.58939 a 5.6948397,5.7613863 0 0 0 5.70492,5.77159 z"
       id="path108"
       style="stroke-width:1.01381" />
    <path
       class="cls-12"
       d="m 393.76795,565.40831 a 5.7149985,5.7817806 0 0 0 5.715,-5.78178 V 538.2839 a 5.7149985,5.7817806 0 0 0 -11.41992,0 v 21.34263 a 5.7149985,5.7817806 0 0 0 5.70492,5.78178 z"
       id="path109"
       style="stroke-width:1.01381" />
    <path
       class="cls-12"
       d="m 369.90002,555.26215 a 5.70492,5.7715843 0 0 0 11.40984,0 c 0,0 0,-0.0612 0,-0.0816 V 545.0956 a 5.715,5.7817821 0 0 0 -11.43,0 v 10.08497 c 0,0 0.0202,0.051 0.0202,0.0816 z"
       id="path110"
       style="stroke-width:1.01381" />
    <path
       class="cls-12"
       d="m 357.48224,553.56942 a 5.7149985,5.7817806 0 0 0 5.715,-5.78178 v -0.12236 a 5.7149985,5.7817806 0 0 0 -11.41991,0 v 0.12236 a 5.7149985,5.7817806 0 0 0 5.70491,5.78178 z"
       id="path111"
       style="stroke-width:1.01381" />
    <path
       class="cls-12"
       d="m 557.17457,543.16834 a 5.6948397,5.7613863 0 0 0 5.69484,-5.7104 v -0.0612 a 5.6948397,5.7613863 0 1 0 -5.69484,5.77159 z"
       id="path112"
       style="stroke-width:1.01381" />
    <text
       xml:space="preserve"
       transform="translate(-280.41595,155.36231)"
       id="text112"
       style="font-style:normal;font-weight:normal;font-size:40px;line-height:1.25;font-family:sans-serif;letter-spacing:0px;word-spacing:0px;white-space:pre;shape-inside:url(#rect112);display:inline;fill:#000000;fill-opacity:1;stroke:none" />
    <text
       xml:space="preserve"
       style="font-style:normal;font-weight:normal;font-size:63.6612px;line-height:1.25;font-family:sans-serif;letter-spacing:0px;word-spacing:0px;fill:#000000;fill-opacity:1;stroke:none;stroke-width:1.69618"
       x="-249.15218"
       y="517.99493"
       id="text113"
       transform="scale(0.93918382,1.0647543)"><tspan
         sodipodi:role="line"
         id="tspan113"
         x="-249.15218"
         y="517.99493"
         style="font-style:normal;font-variant:normal;font-weight:200;font-stretch:normal;font-size:63.6612px;font-family:'Plus Jakarta Sans';-inkscape-font-specification:'Plus Jakarta Sans Ultra-Light';font-variant-ligatures:normal;font-variant-caps:normal;font-variant-numeric:normal;font-variant-east-asian:normal;stroke-width:1.69618"><tspan
           style="font-style:normal;font-variant:normal;font-weight:normal;font-stretch:normal;font-size:63.1705px;font-family:'Plus Jakarta Sans';-inkscape-font-specification:'Plus Jakarta Sans';font-variant-ligatures:normal;font-variant-caps:normal;font-variant-numeric:normal;font-variant-east-asian:normal;stroke-width:1.69618"
           id="tspan117">Z</tspan><tspan
           style="font-style:normal;font-variant:normal;font-weight:200;font-stretch:normal;font-size:54.1461px;font-family:'Plus Jakarta Sans';-inkscape-font-specification:'Plus Jakarta Sans Ultra-Light';stroke-width:1.69618"
           id="tspan120">entrum für ambulante</tspan></tspan><tspan
         sodipodi:role="line"
         x="-249.15218"
         y="601.64856"
         id="tspan114"
         style="font-style:normal;font-variant:normal;font-weight:200;font-stretch:normal;font-size:63.6612px;font-family:'Plus Jakarta Sans';-inkscape-font-specification:'Plus Jakarta Sans Ultra-Light';font-variant-ligatures:normal;font-variant-caps:normal;font-variant-numeric:normal;font-variant-east-asian:normal;stroke-width:1.69618">          <tspan
   style="font-style:normal;font-variant:normal;font-weight:normal;font-stretch:normal;font-family:'Plus Jakarta Sans';-inkscape-font-specification:'Plus Jakarta Sans'"
   id="tspan50766">O</tspan><tspan
   style="font-style:normal;font-variant:normal;font-weight:200;font-stretch:normal;font-size:54.1461px;font-family:'Plus Jakarta Sans';-inkscape-font-specification:'Plus Jakarta Sans Ultra-Light';stroke-width:1.69618"
   id="tspan121">nkologie  und</tspan></tspan><tspan
         sodipodi:role="line"
         x="-249.15218"
         y="685.30219"
         id="tspan115"
         style="font-style:normal;font-variant:normal;font-weight:200;font-stretch:normal;font-size:63.6612px;font-family:'Plus Jakarta Sans';-inkscape-font-specification:'Plus Jakarta Sans Ultra-Light';font-variant-ligatures:normal;font-variant-caps:normal;font-variant-numeric:normal;font-variant-east-asian:normal;stroke-width:1.69618">                     <tspan
   style="font-style:normal;font-variant:normal;font-weight:normal;font-stretch:normal;font-family:'Plus Jakarta Sans';-inkscape-font-specification:'Plus Jakarta Sans'"
   id="tspan52048">H</tspan><tspan
   style="font-style:normal;font-variant:normal;font-weight:200;font-stretch:normal;font-size:54.1461px;font-family:'Plus Jakarta Sans';-inkscape-font-specification:'Plus Jakarta Sans Ultra-Light';stroke-width:1.69618"
   id="tspan122">ämatologie Tübingen</tspan></tspan><tspan
         sodipodi:role="line"
         x="-249.15218"
         y="764.87866"
         id="tspan116"
         style="font-style:normal;font-variant:normal;font-weight:200;font-stretch:normal;font-size:63.6612px;font-family:'Plus Jakarta Sans';-inkscape-font-specification:'Plus Jakarta Sans Ultra-Light';font-variant-ligatures:normal;font-variant-caps:normal;font-variant-numeric:normal;font-variant-east-asian:normal;stroke-width:1.69618" /></text>
  </g>
</svg>
